# xmcd
#
# Track frame offsets:
#	150
#	16305
#	30525
#	44482
#	57805
#	70722
#	83525
#	98017
#	113675
#	126297
#	139377
#	157497
#	171837
#	186385
#	201445
#	213235
#
# Disc length: 3009 seconds
#
# Revision: 1
# Processed by: cddbd v1.5.2PL0 Copyright (c) Steve Scherf et al.
# Submitted via: audiograbber 1.83.01
#
DISCID=e40bbf10
DTITLE=VERSCHIEDENE - SUPERSTARS DER VOLKSMUSIK  CD 2
DYEAR=1992
DGENRE=
TTITLE0=Wildecker Herzbuben - Herzilein
TTITLE1=Isartaler Blasmusik - Aber Bömisch mus es sein
TTITLE2=Uschi Bauer - Die Kleine Bergkirche
TTITLE3=Elfi Graf - Schenk mir einen Traum
TTITLE4=Maria and Margot Hellwig - Grüss Gott meine Freunde
TTITLE5=Heidi and Pia - Schön sind die Mädchen auf dem Land
TTITLE6=Fritz Muliar - Aus Böhmen kommt die Musik
TTITLE7=Janni, Du und Ich - Tote Tante
TTITLE8=Tölzer Knabenchor - Ein Tiroler wollte jagen
TTITLE9=Takeo Ischi - Ein Jodler fühlt sich wohl
TTITLE10=Lolita - Der Abend ist schön
TTITLE11=Rocco Granata - Gib mir mein Herz zurück
TTITLE12=Richard Brandl - Bella Rossa
TTITLE13=Coro Croz Corona - La Montanara
TTITLE14=Reno Kollo - Nun Ade du mein lieb Heimatland
TTITLE15=Andreas Hauff - Sag Dankeschön mit roten Rosen
EXTD=
EXTT0=
EXTT1=
EXTT2=
EXTT3=
EXTT4=
EXTT5=
EXTT6=
EXTT7=
EXTT8=
EXTT9=
EXTT10=
EXTT11=
EXTT12=
EXTT13=
EXTT14=
EXTT15=
PLAYORDER=
